<?xml version="1.0" encoding="utf-8"?>
<!-- Generator: Adobe Illustrator 27.5.0, SVG Export Plug-In . SVG Version: 6.00 Build 0)  -->
<svg version="1.1" id="Layer_1" xmlns="http://www.w3.org/2000/svg" xmlns:xlink="http://www.w3.org/1999/xlink" x="0px" y="0px"
	 viewBox="0 0 6000 6000" style="enable-background:new 0 0 6000 6000;" xml:space="preserve">
<rect style="fill-rule:evenodd;clip-rule:evenodd;fill:#FFFFFF;" width="6000" height="6000"/>
<polygon style="fill-rule:evenodd;clip-rule:evenodd;fill:#35383B;" points="2568.337,1928.048 2179.306,1928.048 
	2104.817,1928.048 2179.306,1971.054 2179.306,3299.289 2597.781,2416.075 2597.781,2507.665 3000,2909.884 3402.219,2507.665 
	3402.219,2416.075 3820.694,3299.289 3820.694,1971.054 3895.185,1928.048 3820.694,1928.048 3431.663,1928.048 3000,2359.711 "/>
<g>
	<g>
		<text transform="matrix(1 0 0 1 1530.0991 3818.4072)" style="fill:#35383B; font-family:'Nexa-Heavy'; font-size:398.1125px;">L</text>
	</g>
</g>
<g>
	<g>
		<text transform="matrix(1 0 0 1 1777.7563 3818.4072)" style="fill:#35383B; font-family:'Nexa-Heavy'; font-size:398.1125px;">O</text>
	</g>
</g>
<g>
	<g>
		<text transform="matrix(1 0 0 1 2116.1782 3818.4072)" style="fill:#35383B; font-family:'Nexa-Heavy'; font-size:398.1125px;">R</text>
	</g>
</g>
<g>
	<g>
		<text transform="matrix(1 0 0 1 2413.9946 3818.4072)" style="fill:#35383B; font-family:'Nexa-Heavy'; font-size:398.1125px;">E</text>
	</g>
</g>
<g>
	<g>
		<text transform="matrix(1 0 0 1 2688.7202 3818.4072)" style="fill:#35383B; font-family:'Nexa-Heavy'; font-size:398.1125px;">M </text>
	</g>
</g>
<g>
	<g>
		
			<text transform="matrix(1 0 0 1 3159.3672 3818.4072)" style="fill:#35383B; font-family:'Nexa-ExtraLight'; font-size:398.1125px;">I</text>
	</g>
</g>
<g>
	<g>
		
			<text transform="matrix(1 0 0 1 3268.2363 3818.4072)" style="fill:#35383B; font-family:'Nexa-ExtraLight'; font-size:398.1125px;">P</text>
	</g>
</g>
<g>
	<g>
		
			<text transform="matrix(1 0 0 1 3545.1113 3818.4072)" style="fill:#35383B; font-family:'Nexa-ExtraLight'; font-size:398.1125px;">S</text>
	</g>
</g>
<g>
	<g>
		
			<text transform="matrix(1 0 0 1 3816.8105 3818.4072)" style="fill:#35383B; font-family:'Nexa-ExtraLight'; font-size:398.1125px;">U</text>
	</g>
</g>
<g>
	<g>
		
			<text transform="matrix(1 0 0 1 4119.1602 3818.4072)" style="fill:#35383B; font-family:'Nexa-ExtraLight'; font-size:398.1125px;">M</text>
	</g>
</g>
<g>
	<g>
		<text transform="matrix(1 0 0 1 2033.021 4068.8467)" style="fill:#35383B; font-family:'Nexa-Heavy'; font-size:182.725px;">S</text>
	</g>
</g>
<g>
	<g>
		<text transform="matrix(1 0 0 1 2221.9663 4068.8467)" style="fill:#35383B; font-family:'Nexa-Heavy'; font-size:182.725px;">L</text>
	</g>
</g>
<g>
	<g>
		<text transform="matrix(1 0 0 1 2399.7632 4068.8467)" style="fill:#35383B; font-family:'Nexa-Heavy'; font-size:182.725px;">O</text>
	</g>
</g>
<g>
	<g>
		<text transform="matrix(1 0 0 1 2619.228 4068.8467)" style="fill:#35383B; font-family:'Nexa-Heavy'; font-size:182.725px;">G</text>
	</g>
</g>
<g>
	<g>
		<text transform="matrix(1 0 0 1 2823.1577 4068.8467)" style="fill:#35383B; font-family:'Nexa-Heavy'; font-size:182.725px;">A</text>
	</g>
</g>
<g>
	<g>
		<text transform="matrix(1 0 0 1 3035.4902 4068.8467)" style="fill:#35383B; font-family:'Nexa-Heavy'; font-size:182.725px;">N</text>
	</g>
</g>
<g>
	<g>
		<text transform="matrix(1 0 0 1 3245.998 4068.8467)" style="fill:#35383B; font-family:'Nexa-Heavy'; font-size:182.725px;">H</text>
	</g>
</g>
<g>
	<g>
		<text transform="matrix(1 0 0 1 3456.502 4068.8467)" style="fill:#35383B; font-family:'Nexa-Heavy'; font-size:182.725px;">E</text>
	</g>
</g>
<g>
	<g>
		<text transform="matrix(1 0 0 1 3646.7305 4068.8467)" style="fill:#35383B; font-family:'Nexa-Heavy'; font-size:182.725px;">R</text>
	</g>
</g>
<g>
	<g>
		<text transform="matrix(1 0 0 1 3847.5527 4068.8467)" style="fill:#35383B; font-family:'Nexa-Heavy'; font-size:182.725px;">E</text>
	</g>
</g>
</svg>
